<svg xmlns="http://www.w3.org/2000/svg" viewBox="0 0 512 512" style="enable-background:new 0 0 512 512" xml:space="preserve"><path style="fill:#0073aa" d="M276.897 322.708v9.328c0 8.055 3.136 15.628 8.832 21.322l22.845 22.844c13.689 13.688 21.228 31.889 21.228 51.249v1.493c0 39.964-32.513 72.477-72.477 72.477s-72.477-32.513-72.477-72.477V414.66c0-11.687 9.474-21.161 21.161-21.161 11.687 0 21.161 9.474 21.161 21.161v14.284c0 16.627 13.527 30.155 30.155 30.155s30.155-13.527 30.155-30.155v-1.493c0-8.055-3.136-15.628-8.832-21.322l-22.845-22.843c-13.689-13.688-21.228-31.889-21.228-51.249v-9.328h42.322z"/><path style="fill:#ebebeb" d="M213.676 280.386h84.645v42.322h-84.645z"/><path style="fill:#f9461c" d="M152.839 84.645v116.386l44.968 79.355h116.386l44.968-79.355V84.645z"/><circle style="fill:#ebebeb" cx="255.998" cy="166.02" r="26.451"/><path style="fill:#a8a8a8" d="M177.638 10.581h42.322v74.064h-42.322zM292.035 10.581h42.322v74.064h-42.322z"/><path style="fill:#231f20" d="M293.209 345.875c-3.398-3.398-5.371-7.831-5.67-12.587h10.784c5.843 0 10.581-4.737 10.581-10.581v-31.742h5.29c3.811 0 7.327-2.049 9.205-5.364l44.967-79.354a10.583 10.583 0 0 0 1.375-5.216V84.645c0-5.844-4.738-10.581-10.581-10.581h-14.218V10.581C344.943 4.737 340.205 0 334.362 0H292.04c-5.843 0-10.581 4.737-10.581 10.581v63.484h-50.918V10.581C230.541 4.737 225.803 0 219.96 0h-42.322c-5.843 0-10.581 4.737-10.581 10.581v63.484h-14.218c-5.843 0-10.581 4.737-10.581 10.581v116.386c0 1.828.474 3.626 1.375 5.216l44.967 79.354a10.58 10.58 0 0 0 9.205 5.364h5.29v31.742c0 5.844 4.738 10.581 10.581 10.581h10.347c.32 21.716 8.906 42.087 24.295 57.477l22.846 22.844a19.446 19.446 0 0 1 5.732 13.84v1.493c0 10.793-8.781 19.574-19.574 19.574-10.793 0-19.574-8.781-19.574-19.574v-14.284c0-17.502-14.239-31.742-31.742-31.742s-31.742 14.239-31.742 31.742v14.284c0 45.798 37.26 83.058 83.058 83.058s83.058-37.26 83.058-83.058v-1.493c0-22.186-8.639-43.044-24.326-58.731l-22.845-22.844zm9.412-324.714h21.161v52.903h-21.161V21.161zm-114.402 0h21.161v52.903h-21.161V21.161zM163.42 198.242V95.225h185.16v103.017l-40.552 71.563H203.973l-40.553-71.563zm124.322 92.724v21.161h-63.484v-21.161h63.484zm31.477 137.976c0 34.13-27.767 61.896-61.896 61.896s-61.896-27.767-61.896-61.896v-14.284c0-5.834 4.746-10.581 10.581-10.581 5.834 0 10.581 4.746 10.581 10.581v14.284c0 22.462 18.274 40.735 40.735 40.735s40.735-18.274 40.735-40.735v-1.493c0-10.882-4.238-21.111-11.93-28.804l-22.845-22.843c-11.395-11.394-17.8-26.448-18.116-42.514h21.168c.312 10.412 4.515 20.153 11.912 27.551l22.845 22.843c11.69 11.689 18.129 27.233 18.129 43.767v1.493h-.003z"/><path style="fill:#231f20" d="M256 203.047c20.419 0 37.032-16.613 37.032-37.032S276.42 128.983 256 128.983s-37.032 16.613-37.032 37.032 16.614 37.032 37.032 37.032zm0-52.903c8.751 0 15.871 7.12 15.871 15.871s-7.12 15.871-15.871 15.871c-8.751 0-15.871-7.12-15.871-15.871s7.12-15.871 15.871-15.871z"/></svg>