<?xml version="1.0" encoding="iso-8859-1"?>
<!-- Generator: Adobe Illustrator 19.0.0, SVG Export Plug-In . SVG Version: 6.00 Build 0)  -->
<svg version="1.1" id="Layer_1" xmlns="http://www.w3.org/2000/svg" xmlns:xlink="http://www.w3.org/1999/xlink" x="0px" y="0px"
	 viewBox="0 0 512 512" style="enable-background:new 0 0 512 512;" xml:space="preserve">
<path style="fill:#0073AA;" d="M276.897,322.708v9.328c0,8.055,3.136,15.628,8.832,21.322l22.845,22.844
	c13.689,13.688,21.228,31.889,21.228,51.249v1.493c0,39.964-32.513,72.477-72.477,72.477s-72.477-32.513-72.477-72.477V414.66
	c0-11.687,9.474-21.161,21.161-21.161c11.687,0,21.161,9.474,21.161,21.161v14.284c0,16.627,13.527,30.155,30.155,30.155
	s30.155-13.527,30.155-30.155v-1.493c0-8.055-3.136-15.628-8.832-21.322l-22.845-22.843c-13.689-13.688-21.228-31.889-21.228-51.249
	v-9.328H276.897z"/>
<rect x="213.676" y="280.386" style="fill:#EBEBEB;" width="84.645" height="42.322"/>
<polygon style="fill:#F9461C;" points="152.839,84.645 152.839,201.031 197.807,280.386 314.193,280.386 359.161,201.031 
	359.161,84.645 "/>
<circle style="fill:#EBEBEB;" cx="255.998" cy="166.02" r="26.451"/>
<g>
	<rect x="177.638" y="10.581" style="fill:#A8A8A8;" width="42.322" height="74.064"/>
	<rect x="292.035" y="10.581" style="fill:#A8A8A8;" width="42.322" height="74.064"/>
</g>
<g>
	<path style="fill:#231F20;" d="M293.209,345.875c-3.398-3.398-5.371-7.831-5.67-12.587h10.784c5.843,0,10.581-4.737,10.581-10.581
		v-31.742h5.29c3.811,0,7.327-2.049,9.205-5.364l44.967-79.354c0.901-1.59,1.375-3.388,1.375-5.216V84.645
		c0-5.844-4.738-10.581-10.581-10.581h-14.218V10.581C344.943,4.737,340.205,0,334.362,0H292.04
		c-5.843,0-10.581,4.737-10.581,10.581v63.484h-50.918V10.581C230.541,4.737,225.803,0,219.96,0h-42.322
		c-5.843,0-10.581,4.737-10.581,10.581v63.484h-14.218c-5.843,0-10.581,4.737-10.581,10.581v116.386
		c0,1.828,0.474,3.626,1.375,5.216l44.967,79.354c1.878,3.315,5.395,5.364,9.205,5.364h5.29v31.742
		c0,5.844,4.738,10.581,10.581,10.581h10.347c0.32,21.716,8.906,42.087,24.295,57.477l22.846,22.844
		c3.696,3.696,5.732,8.612,5.732,13.84v1.493c0,10.793-8.781,19.574-19.574,19.574c-10.793,0-19.574-8.781-19.574-19.574v-14.284
		c0-17.502-14.239-31.742-31.742-31.742s-31.742,14.239-31.742,31.742v14.284c0,45.798,37.26,83.058,83.058,83.058
		s83.058-37.26,83.058-83.058v-1.493c0-22.186-8.639-43.044-24.326-58.731L293.209,345.875z M302.621,21.161h21.161v52.903h-21.161
		V21.161z M188.219,21.161h21.161v52.903h-21.161V21.161z M163.42,198.242V95.225h185.16v103.017l-40.552,71.563H203.973
		L163.42,198.242z M287.742,290.966v21.161h-63.484v-21.161H287.742z M319.219,428.942c0,34.13-27.767,61.896-61.896,61.896
		s-61.896-27.767-61.896-61.896v-14.284c0-5.834,4.746-10.581,10.581-10.581c5.834,0,10.581,4.746,10.581,10.581v14.284
		c0,22.462,18.274,40.735,40.735,40.735s40.735-18.274,40.735-40.735v-1.493c0-10.882-4.238-21.111-11.93-28.804l-22.845-22.843
		c-11.395-11.394-17.8-26.448-18.116-42.514h21.168c0.312,10.412,4.515,20.153,11.912,27.551l22.845,22.843
		c11.69,11.689,18.129,27.233,18.129,43.767v1.493H319.219z"/>
	<path style="fill:#231F20;" d="M256,203.047c20.419,0,37.032-16.613,37.032-37.032S276.42,128.983,256,128.983
		s-37.032,16.613-37.032,37.032S235.582,203.047,256,203.047z M256,150.144c8.751,0,15.871,7.12,15.871,15.871
		s-7.12,15.871-15.871,15.871c-8.751,0-15.871-7.12-15.871-15.871S247.249,150.144,256,150.144z"/>
</g>
<g>
</g>
<g>
</g>
<g>
</g>
<g>
</g>
<g>
</g>
<g>
</g>
<g>
</g>
<g>
</g>
<g>
</g>
<g>
</g>
<g>
</g>
<g>
</g>
<g>
</g>
<g>
</g>
<g>
</g>
</svg>
